<svg width="250" height="70" viewBox="0 0 250 70" fill="none" xmlns="http://www.w3.org/2000/svg">
<path fill-rule="evenodd" clip-rule="evenodd" d="M29.5665 18.783C34.202 16.8498 39.3959 16.8498 44.0316 18.783C44.1075 18.5023 44.2593 18.2537 44.4738 18.042C44.8087 17.7197 45.2105 17.5633 45.6705 17.591C53.2448 18.0097 60.0598 22.4559 63.6682 29.3277C65.8521 33.4839 66.3834 38.4408 65.7494 43.0757C65.3027 46.3022 64.2756 49.5102 62.6902 52.3316C62.4535 52.7504 62.065 53.0219 61.6362 53.1186C61.1494 53.2843 60.5957 53.2107 60.158 52.8701C58.729 51.7562 57.3802 50.555 56.1209 49.2801C56.1878 52.8103 55.8305 56.3498 55.0623 59.7971C55.0534 59.8293 55.0445 59.8615 55.0401 59.8892C53.8656 64.1649 50.2392 67.1888 46.0055 67.5663C40.2176 70.5765 33.3803 70.5765 27.5924 67.5663C23.3588 67.1935 19.7369 64.1649 18.5624 59.8892C18.5534 59.8615 18.5445 59.8293 18.5356 59.7971C17.7674 56.3498 17.4102 52.8103 17.4816 49.2801C16.2178 50.555 14.8736 51.7562 13.44 52.8701C13.0023 53.2107 12.4486 53.2843 11.9618 53.1186C11.533 53.0219 11.1445 52.7504 10.9079 52.3316C9.32241 49.5102 8.29523 46.3022 7.84866 43.0757C7.21451 38.4408 7.75042 33.4839 9.92983 29.3277C13.5383 22.4559 20.3577 18.0097 27.9275 17.591C28.3874 17.5633 28.7894 17.7197 29.1244 18.042C29.3432 18.2537 29.4906 18.5023 29.5665 18.783ZM47.247 21.3191C47.247 21.342 47.2515 21.365 47.2515 21.3881C47.7919 32.1352 52.6687 42.1782 60.7028 49.0684C63.2127 43.5222 63.6504 36.2868 60.8279 30.911C58.0322 25.5904 52.9768 21.9772 47.2381 21.0935C47.2381 21.1718 47.2425 21.2454 47.247 21.3191ZM44.0807 22.4559C39.5076 20.0579 34.0904 20.058 29.5174 22.4606C28.9233 30.8005 25.9267 38.7079 20.9963 45.2113C20.4381 49.8093 20.6703 54.4948 21.6752 59.0101C22.4745 61.8775 24.8772 63.9118 27.6997 64.234C27.923 64.1972 28.1552 64.211 28.383 64.2755C28.4098 64.2755 28.4366 64.2755 28.4634 64.2755C31.1653 64.2847 33.6483 62.7289 34.863 60.2343C34.9434 60.0686 35.0461 59.9214 35.1712 59.7971C35.1533 58.7845 35.1444 57.772 35.1533 56.7639C34.9658 56.8745 34.7916 57.0033 34.6308 57.1552C33.9609 57.7581 32.9382 57.6937 32.3488 57.0079C31.7636 56.3175 31.8262 55.2635 32.4916 54.656C33.6751 53.5789 35.189 52.9805 36.7655 52.9529C36.7834 52.9529 36.8012 52.9529 36.8147 52.9529C36.8236 52.9529 36.828 52.9529 36.8325 52.9529C38.409 52.9805 39.9229 53.5789 41.1063 54.656C41.7717 55.2635 41.8388 56.3175 41.2493 57.0079C40.6598 57.6937 39.6371 57.7581 38.9672 57.1552C38.7886 56.9895 38.5921 56.8422 38.3822 56.7225C38.3777 57.7397 38.3822 58.7569 38.4 59.7695C38.534 59.9029 38.6501 60.0549 38.7394 60.2343C39.9496 62.7289 42.4328 64.2847 45.1346 64.2755C45.1614 64.2755 45.1883 64.2755 45.2195 64.2755C45.4428 64.211 45.675 64.1972 45.8984 64.234C48.7208 63.9118 51.1235 61.8775 51.9229 59.0101C52.9277 54.4948 53.1599 49.8093 52.6017 45.2113C47.6713 38.7079 44.6746 30.8005 44.0807 22.4559ZM33.6439 66.1947C35.7294 66.5951 37.8686 66.5951 39.9542 66.1947C38.735 65.4721 37.6542 64.4963 36.8012 63.3135C35.9438 64.4963 34.863 65.4721 33.6439 66.1947ZM26.3644 21.0935C20.6213 21.9772 15.5658 25.5904 12.7701 30.911C9.94765 36.2868 10.3853 43.5222 12.8952 49.0684C21.0052 42.1137 25.8955 31.9557 26.3644 21.0935ZM38.9762 42.643C40.2087 41.1287 41.9951 40.2129 43.9065 40.107C45.8134 40.0011 47.6981 40.7192 49.0781 42.0769C49.7167 42.7121 49.7435 43.7707 49.1271 44.4335C48.5109 45.0963 47.4882 45.1193 46.8451 44.4841C46.1082 43.7569 45.0989 43.3748 44.0807 43.4301C43.0579 43.4853 42.1068 43.9778 41.4457 44.7833C40.8741 45.4875 39.8515 45.5795 39.1682 44.9858C38.4894 44.3966 38.4 43.3427 38.9762 42.643ZM24.4038 42.643C25.6364 41.1287 27.4228 40.2129 29.3343 40.107C31.2412 40.0011 33.1259 40.7192 34.5057 42.0769C35.1488 42.7121 35.1712 43.7707 34.5549 44.4335C33.9387 45.0963 32.9159 45.1193 32.2729 44.4841C31.536 43.7569 30.5267 43.3748 29.5084 43.4301C28.4902 43.4853 27.5345 43.9778 26.8735 44.7833C26.3019 45.4875 25.2792 45.5795 24.6003 44.9858C23.917 44.3966 23.8322 43.3427 24.4038 42.643Z" fill="#0F637A"/>
<path d="M5.80319 15.776L6.79591 16.9092L5.13262 18.4516L7.16784 20.7749L9.25998 18.8343L10.2526 19.9676L6.94884 23.0315L0 15.0981L3.30475 12.0342L4.29746 13.1673L2.20435 15.1079L4.14 17.3179L5.80319 15.776Z" fill="#222222"/>
<path d="M9.49572 7.41908C10.8513 6.57079 12.0413 6.9689 12.9036 8.42894L13.0737 8.71571L11.7562 9.54026L11.5327 9.16221C11.1473 8.51042 10.7473 8.42143 10.3038 8.69894C9.86044 8.97645 9.75366 9.3829 10.1391 10.0347C11.2485 11.9119 14.1804 10.5589 15.7215 13.1661C16.5848 14.6262 16.3685 15.9046 15.0003 16.7609C13.6321 17.6175 12.4294 17.2269 11.5662 15.7669L11.235 15.2063L12.5525 14.3817L12.938 15.0335C13.3236 15.6854 13.7406 15.7454 14.1841 15.4679C14.6275 15.1904 14.7677 14.7812 14.3823 14.1294C13.2719 12.2522 10.3409 13.6052 8.79897 10.9979C7.93656 9.53788 8.14016 8.26737 9.49572 7.41908Z" fill="#222222"/>
<path d="M20.7252 2.18982L21.2482 3.61677L19.6529 4.23604L22.792 12.7998L21.2663 13.392L18.1272 4.82817L16.5328 5.44743L16.0088 4.01993L20.7252 2.18982Z" fill="#222222"/>
<path d="M28.2439 0.352567C29.8519 0.0690094 30.7949 0.847465 31.0744 2.53286L31.9604 7.85814C32.2408 9.54299 31.6039 10.5999 29.9958 10.883L27.4521 11.3313L25.7002 0.800448L28.2439 0.352567ZM28.8103 9.54345L29.7162 9.3838C30.2283 9.29389 30.4899 8.969 30.365 8.21657L29.4537 2.74044C29.3289 1.98857 28.9769 1.77164 28.4647 1.86191L27.5589 2.02165L28.8103 9.54345Z" fill="#222222"/>
<path d="M44.5041 1.54173C43.9902 1.4663 43.6272 1.7056 43.5232 2.46077L43.3657 3.59354L41.8392 3.36964L41.9821 2.34255C42.2165 0.651097 43.1721 -0.19481 44.7575 0.0379749C46.342 0.270302 47.0297 1.35742 46.7953 3.04878C46.3357 6.37119 42.9494 7.13847 42.7088 8.87501C42.6988 8.95043 42.6879 9.02586 42.6925 9.10367L45.7447 9.55155L45.5357 11.0618L40.8682 10.377L41.0483 9.07801C41.4799 5.96703 44.7502 5.92331 45.1728 2.87236C45.3049 1.92124 45.0172 1.6167 44.5041 1.54173Z" fill="#222222"/>
<path d="M54.7227 2.54044C56.2348 3.08566 56.747 4.30549 56.1969 5.91867L54.4115 11.1616C53.8612 12.7747 52.722 13.399 51.2099 12.8539C49.6987 12.3083 49.1865 11.0889 49.7357 9.4757L51.522 4.23235C52.0713 2.61917 53.2115 1.99523 54.7227 2.54044ZM51.7003 11.4134C52.1908 11.5898 52.5917 11.4273 52.8369 10.7071L54.6919 5.26265C54.9372 4.5424 54.7219 4.15784 54.2323 3.98096C53.7427 3.80445 53.3409 3.96694 53.0957 4.6872L51.2416 10.1316C50.9963 10.8519 51.2107 11.2364 51.7003 11.4134Z" fill="#222222"/>
<path d="M63.4149 8.38454C62.9679 8.11308 62.5435 8.19226 62.167 8.84919L61.6015 9.83431L60.2739 9.028L60.7862 8.13452C61.6304 6.66285 62.8276 6.25639 64.2067 7.09396C65.5858 7.93152 65.8183 9.20671 64.9741 10.6779C63.3162 13.5683 59.902 12.9472 59.0351 14.4585C58.998 14.5241 58.9601 14.5897 58.9347 14.6633L61.5906 16.276L60.8368 17.5899L56.7773 15.1238L57.4253 13.9938C58.9772 11.2874 62.0168 12.5314 63.5398 9.87766C64.0139 9.04981 63.8619 8.656 63.4149 8.38454Z" fill="#222222"/>
<path d="M72.7788 13.7492L73.5978 14.5006L66.6896 22.475L65.4717 21.3581L70.7418 15.2749L69.8008 14.4112L70.5708 13.5229C71.512 14.3861 72.1263 14.1119 72.7788 13.7492Z" fill="#222222"/>
<path d="M95.4586 34.8995C95.4586 35.6449 95.2876 36.3292 94.9454 36.9524C94.6033 37.5634 94.0778 38.0583 93.3691 38.4371C92.6603 38.8159 91.7805 39.0053 90.7296 39.0053H88.7867V43.6243H85.6523V30.757H90.7296C91.7561 30.757 92.6237 30.9342 93.3324 31.2886C94.0412 31.643 94.5727 32.1317 94.9271 32.7549C95.2815 33.3781 95.4586 34.093 95.4586 34.8995ZM90.4913 36.5125C91.0901 36.5125 91.5361 36.372 91.8294 36.0909C92.1227 35.8099 92.2693 35.4127 92.2693 34.8995C92.2693 34.3863 92.1227 33.9891 91.8294 33.7081C91.5361 33.427 91.0901 33.2865 90.4913 33.2865H88.7867V36.5125H90.4913Z" fill="#063643"/>
<path d="M100.591 30.757V43.6243H97.457V30.757H100.591Z" fill="#063643"/>
<path d="M114.74 43.6243H111.606L106.364 35.6877V43.6243H103.229V30.757H106.364L111.606 38.7304V30.757H114.74V43.6243Z" fill="#063643"/>
<path d="M122.2 30.757C123.556 30.757 124.741 31.0259 125.755 31.5635C126.77 32.1012 127.552 32.8588 128.102 33.8364C128.664 34.8017 128.945 35.9198 128.945 37.1907C128.945 38.4493 128.664 39.5674 128.102 40.545C127.552 41.5226 126.764 42.2802 125.737 42.8178C124.723 43.3555 123.544 43.6243 122.2 43.6243H117.379V30.757H122.2ZM121.998 40.9116C123.183 40.9116 124.106 40.5878 124.766 39.9401C125.426 39.2925 125.755 38.376 125.755 37.1907C125.755 36.0054 125.426 35.0828 124.766 34.4229C124.106 33.7631 123.183 33.4331 121.998 33.4331H120.513V40.9116H121.998Z" fill="#063643"/>
<path d="M137.148 43.7527C135.939 43.7527 134.827 43.4716 133.812 42.9095C132.81 42.3474 132.01 41.5653 131.411 40.5633C130.825 39.5491 130.531 38.4127 130.531 37.154C130.531 35.8954 130.825 34.7651 131.411 33.7631C132.01 32.7611 132.81 31.979 133.812 31.4169C134.827 30.8548 135.939 30.5737 137.148 30.5737C138.358 30.5737 139.464 30.8548 140.466 31.4169C141.48 31.979 142.275 32.7611 142.849 33.7631C143.435 34.7651 143.729 35.8954 143.729 37.154C143.729 38.4127 143.435 39.5491 142.849 40.5633C142.262 41.5653 141.468 42.3474 140.466 42.9095C139.464 43.4716 138.358 43.7527 137.148 43.7527ZM137.148 40.8932C138.175 40.8932 138.994 40.5511 139.605 39.8668C140.228 39.1825 140.539 38.2782 140.539 37.154C140.539 36.0176 140.228 35.1133 139.605 34.4413C138.994 33.757 138.175 33.4148 137.148 33.4148C136.11 33.4148 135.279 33.7508 134.656 34.4229C134.045 35.095 133.739 36.0054 133.739 37.154C133.739 38.2905 134.045 39.2008 134.656 39.8851C135.279 40.5572 136.11 40.8932 137.148 40.8932Z" fill="#063643"/>
<path d="M152.401 43.6243L149.725 38.767H148.973V43.6243H145.839V30.757H151.1C152.114 30.757 152.975 30.9342 153.684 31.2886C154.405 31.643 154.943 32.1317 155.297 32.7549C155.651 33.3659 155.829 34.0502 155.829 34.8078C155.829 35.6632 155.584 36.427 155.095 37.099C154.619 37.7711 153.91 38.2477 152.969 38.5287L155.939 43.6243H152.401ZM148.973 36.5492H150.916C151.491 36.5492 151.918 36.4086 152.199 36.1276C152.493 35.8465 152.639 35.4494 152.639 34.9362C152.639 34.4474 152.493 34.0624 152.199 33.7814C151.918 33.5003 151.491 33.3598 150.916 33.3598H148.973V36.5492Z" fill="#063643"/>
<path d="M166.173 41.3515H161.37L160.601 43.6243H157.32L161.975 30.757H165.605L170.26 43.6243H166.943L166.173 41.3515ZM165.366 38.932L163.772 34.2213L162.195 38.932H165.366Z" fill="#063643"/>
<path d="M186.616 30.757V43.6243H183.481V35.9076L180.604 43.6243H178.074L175.178 35.8893V43.6243H172.044V30.757H175.746L179.357 39.6652L182.932 30.757H186.616Z" fill="#063643"/>
<path d="M197.246 41.3515H192.444L191.674 43.6243H188.393L193.049 30.757H196.678L201.334 43.6243H198.016L197.246 41.3515ZM196.44 38.932L194.845 34.2213L193.269 38.932H196.44Z" fill="#063643"/>
<path d="M217.175 34.8995C217.175 35.6449 217.004 36.3292 216.661 36.9524C216.319 37.5634 215.794 38.0583 215.085 38.4371C214.376 38.8159 213.496 39.0053 212.446 39.0053H210.503V43.6243H207.368V30.757H212.446C213.472 30.757 214.34 30.9342 215.048 31.2886C215.757 31.643 216.289 32.1317 216.643 32.7549C216.997 33.3781 217.175 34.093 217.175 34.8995ZM212.207 36.5125C212.806 36.5125 213.252 36.372 213.545 36.0909C213.839 35.8099 213.985 35.4127 213.985 34.8995C213.985 34.3863 213.839 33.9891 213.545 33.7081C213.252 33.427 212.806 33.2865 212.207 33.2865H210.503V36.5125H212.207Z" fill="#063643"/>
<path d="M222.307 33.2682V35.871H226.505V38.2905H222.307V41.1132H227.055V43.6243H219.173V30.757H227.055V33.2682H222.307Z" fill="#063643"/>
<path d="M238.713 30.757V33.2682H235.303V43.6243H232.169V33.2682H228.76V30.757H238.713Z" fill="#063643"/>
<path d="M245.308 43.7527C244.367 43.7527 243.524 43.5999 242.778 43.2944C242.033 42.9889 241.434 42.5368 240.982 41.938C240.542 41.3393 240.31 40.6183 240.286 39.7751H243.622C243.67 40.2517 243.835 40.6183 244.116 40.8749C244.397 41.1193 244.764 41.2415 245.216 41.2415C245.681 41.2415 246.047 41.1376 246.316 40.9299C246.585 40.71 246.719 40.4106 246.719 40.0318C246.719 39.714 246.609 39.4513 246.389 39.2436C246.182 39.0359 245.919 38.8648 245.601 38.7304C245.296 38.5959 244.856 38.4432 244.281 38.2721C243.45 38.0155 242.772 37.7589 242.247 37.5023C241.721 37.2457 241.269 36.8669 240.89 36.3659C240.512 35.8649 240.322 35.2111 240.322 34.4046C240.322 33.2071 240.756 32.2723 241.624 31.6002C242.491 30.9159 243.622 30.5737 245.015 30.5737C246.432 30.5737 247.575 30.9159 248.442 31.6002C249.31 32.2723 249.774 33.2132 249.835 34.4229H246.444C246.42 34.0075 246.267 33.6836 245.986 33.4515C245.705 33.2071 245.344 33.0849 244.905 33.0849C244.526 33.0849 244.22 33.1887 243.988 33.3965C243.756 33.592 243.64 33.8792 243.64 34.258C243.64 34.6734 243.835 34.9973 244.226 35.2294C244.617 35.4616 245.228 35.7121 246.059 35.9809C246.89 36.262 247.562 36.5308 248.076 36.7874C248.601 37.044 249.053 37.4167 249.432 37.9055C249.811 38.3943 250 39.0236 250 39.7935C250 40.5267 249.811 41.1926 249.432 41.7914C249.065 42.3902 248.528 42.8667 247.819 43.2211C247.11 43.5755 246.273 43.7527 245.308 43.7527Z" fill="#063643"/>
</svg>
