<svg width="300" height="300" viewBox="0 0 300 300" fill="none" xmlns="http://www.w3.org/2000/svg">
<path fill-rule="evenodd" clip-rule="evenodd" d="M137.819 91.1415C145.626 87.9774 154.373 87.9774 162.18 91.1415C162.308 90.6821 162.564 90.2751 162.925 89.9286C163.489 89.4012 164.166 89.1452 164.941 89.1905C177.697 89.8758 189.174 97.1529 195.252 108.4C198.93 115.202 199.825 123.315 198.757 130.901C198.004 136.182 196.275 141.433 193.605 146.051C193.206 146.736 192.552 147.18 191.829 147.339C191.01 147.61 190.077 147.489 189.34 146.932C186.933 145.109 184.662 143.143 182.541 141.056C182.653 146.834 182.052 152.627 180.758 158.269C180.743 158.322 180.728 158.375 180.72 158.42C178.742 165.418 172.635 170.367 165.505 170.985C155.757 175.912 144.242 175.912 134.494 170.985C127.364 170.375 121.264 165.418 119.286 158.42C119.271 158.375 119.256 158.322 119.241 158.269C117.947 152.627 117.345 146.834 117.466 141.056C115.337 143.143 113.073 145.109 110.659 146.932C109.922 147.489 108.989 147.61 108.169 147.339C107.447 147.18 106.793 146.736 106.394 146.051C103.724 141.433 101.994 136.182 101.242 130.901C100.174 123.315 101.077 115.202 104.747 108.4C110.824 97.1529 122.31 89.8758 135.058 89.1905C135.833 89.1452 136.51 89.4012 137.074 89.9286C137.443 90.2751 137.691 90.6821 137.819 91.1415ZM167.596 95.2923C167.596 95.3298 167.603 95.3675 167.603 95.4053C168.513 112.995 176.727 129.432 190.257 140.71C194.484 131.632 195.222 119.79 190.468 110.991C185.76 102.283 177.246 96.3695 167.581 94.923C167.581 95.0513 167.588 95.1717 167.596 95.2923ZM162.263 97.1529C154.561 93.2282 145.438 93.2282 137.736 97.1606C136.735 110.811 131.689 123.753 123.385 134.397C122.445 141.922 122.836 149.591 124.528 156.981C125.875 161.674 129.921 165.004 134.675 165.531C135.051 165.471 135.442 165.494 135.825 165.599C135.871 165.599 135.916 165.599 135.961 165.599C140.511 165.614 144.693 163.068 146.739 158.985C146.874 158.714 147.047 158.473 147.258 158.269C147.228 156.612 147.213 154.955 147.228 153.305C146.912 153.486 146.619 153.697 146.348 153.945C145.22 154.932 143.497 154.827 142.504 153.704C141.519 152.574 141.624 150.849 142.745 149.855C144.738 148.092 147.288 147.113 149.943 147.068C149.973 147.068 150.003 147.068 150.026 147.068C150.041 147.068 150.048 147.068 150.056 147.068C152.711 147.113 155.261 148.092 157.254 149.855C158.374 150.849 158.487 152.574 157.494 153.704C156.502 154.827 154.779 154.932 153.651 153.945C153.35 153.674 153.019 153.433 152.666 153.237C152.658 154.902 152.666 156.567 152.696 158.224C152.921 158.443 153.117 158.691 153.267 158.985C155.306 163.068 159.488 165.614 164.038 165.599C164.083 165.599 164.128 165.599 164.181 165.599C164.557 165.494 164.948 165.471 165.324 165.531C170.078 165.004 174.124 161.674 175.471 156.981C177.163 149.591 177.554 141.922 176.614 134.397C168.31 123.753 163.263 110.811 162.263 97.1529ZM144.686 168.74C148.198 169.396 151.801 169.396 155.313 168.74C153.26 167.558 151.44 165.961 150.003 164.025C148.559 165.961 146.739 167.558 144.686 168.74ZM132.426 94.923C122.753 96.3695 114.239 102.283 109.531 110.991C104.777 119.79 105.514 131.632 109.741 140.71C123.4 129.327 131.636 112.701 132.426 94.923ZM153.666 130.193C155.742 127.715 158.751 126.216 161.97 126.042C165.181 125.869 168.355 127.044 170.679 129.267C171.755 130.306 171.8 132.039 170.762 133.124C169.724 134.208 168.002 134.246 166.919 133.207C165.678 132.016 163.978 131.391 162.263 131.481C160.54 131.572 158.939 132.378 157.825 133.696C156.863 134.849 155.14 134.999 153.99 134.028C152.846 133.063 152.696 131.338 153.666 130.193ZM129.124 130.193C131.2 127.715 134.208 126.216 137.428 126.042C140.639 125.869 143.813 127.044 146.137 129.267C147.22 130.306 147.258 132.039 146.22 133.124C145.182 134.208 143.46 134.246 142.377 133.207C141.136 132.016 139.436 131.391 137.721 131.481C136.006 131.572 134.396 132.378 133.283 133.696C132.321 134.849 130.598 134.999 129.455 134.028C128.304 133.063 128.161 131.338 129.124 130.193Z" fill="#0F637A"/>
<path d="M97.7977 86.2192L99.4696 88.0739L96.6684 90.5984L100.096 94.4009L103.62 91.2248L105.291 93.0796L99.7272 98.0944L88.0242 85.1098L93.5899 80.095L95.2618 81.9496L91.7367 85.1257L94.9966 88.7429L97.7977 86.2192Z" fill="#222222"/>
<path d="M104.014 72.5419C106.297 71.1535 108.301 71.8051 109.754 74.1947L110.04 74.6641L107.821 76.0136L107.445 75.3949C106.796 74.3281 106.122 74.1824 105.375 74.6366C104.628 75.0908 104.449 75.7561 105.098 76.8229C106.966 79.8953 111.904 77.6809 114.499 81.9481C115.953 84.3377 115.589 86.4302 113.285 87.8317C110.98 89.2337 108.955 88.5944 107.501 86.2048L106.943 85.2872L109.162 83.9377L109.811 85.0045C110.461 86.0714 111.163 86.1697 111.91 85.7155C112.657 85.2613 112.893 84.5915 112.244 83.5247C110.374 80.4523 105.438 82.6667 102.841 78.3994C101.388 76.0097 101.731 73.9303 104.014 72.5419Z" fill="#222222"/>
<path d="M122.929 63.983L123.81 66.3185L121.123 67.3321L126.41 81.3484L123.84 82.3177L118.553 68.3012L115.868 69.3148L114.986 66.9784L122.929 63.983Z" fill="#222222"/>
<path d="M135.592 60.9762C138.3 60.5121 139.888 61.7862 140.359 64.5447L141.851 73.2606C142.323 76.0182 141.251 77.748 138.542 78.2114L134.258 78.9452L131.308 61.7093L135.592 60.9762ZM136.546 76.019L138.072 75.7577C138.934 75.6105 139.375 75.0788 139.164 73.8473L137.629 64.8845C137.419 63.6539 136.826 63.2988 135.964 63.4466L134.438 63.708L136.546 76.019Z" fill="#222222"/>
<path d="M162.977 62.9223C162.111 62.7988 161.5 63.1905 161.325 64.4265L161.06 66.2805L158.489 65.914L158.73 64.233C159.124 61.4646 160.734 60.0801 163.404 60.4611C166.072 60.8413 167.231 62.6206 166.836 65.3889C166.062 70.8267 160.359 72.0825 159.953 74.9247C159.937 75.0481 159.918 75.1716 159.926 75.2989L165.066 76.032L164.714 78.5038L156.854 77.383L157.157 75.2569C157.884 70.1652 163.392 70.0936 164.103 65.1001C164.326 63.5434 163.841 63.045 162.977 62.9223Z" fill="#222222"/>
<path d="M180.186 64.5568C182.733 65.4491 183.595 67.4456 182.669 70.0859L179.662 78.667C178.735 81.3073 176.817 82.3291 174.27 81.4369C171.725 80.5438 170.862 78.548 171.787 75.9077L174.796 67.3259C175.721 64.6856 177.641 63.6644 180.186 64.5568ZM175.096 79.0792C175.922 79.3679 176.597 79.102 177.01 77.9231L180.134 69.0122C180.547 67.8334 180.185 67.204 179.36 66.9145C178.536 66.6256 177.859 66.8915 177.446 68.0704L174.323 76.9813C173.91 78.1601 174.272 78.7895 175.096 79.0792Z" fill="#222222"/>
<path d="M194.826 74.1224C194.073 73.6781 193.358 73.8077 192.724 74.8829L191.772 76.4952L189.536 75.1755L190.399 73.7132C191.821 71.3045 193.837 70.6392 196.159 72.0101C198.482 73.3809 198.874 75.468 197.452 77.876C194.66 82.6067 188.91 81.5901 187.45 84.0636C187.387 84.171 187.323 84.2784 187.281 84.3989L191.754 87.0384L190.484 89.1888L183.647 85.1525L184.738 83.3031C187.352 78.8735 192.471 80.9096 195.036 76.5662C195.835 75.2112 195.579 74.5667 194.826 74.1224Z" fill="#222222"/>
<path d="M210.596 82.9023L211.976 84.1322L200.341 97.1838L198.29 95.3558L207.166 85.3994L205.581 83.9858L206.878 82.532C208.463 83.9447 209.498 83.4959 210.596 82.9023Z" fill="#222222"/>
<path d="M74.46 197.07C74.46 198.29 74.18 199.41 73.62 200.43C73.06 201.43 72.2 202.24 71.04 202.86C69.88 203.48 68.44 203.79 66.72 203.79H63.54V211.35H58.41V190.29H66.72C68.4 190.29 69.82 190.58 70.98 191.16C72.14 191.74 73.01 192.54 73.59 193.56C74.17 194.58 74.46 195.75 74.46 197.07ZM66.33 199.71C67.31 199.71 68.04 199.48 68.52 199.02C69 198.56 69.24 197.91 69.24 197.07C69.24 196.23 69 195.58 68.52 195.12C68.04 194.66 67.31 194.43 66.33 194.43H63.54V199.71H66.33Z" fill="#063643"/>
<path d="M82.2607 190.29V211.35H77.1307V190.29H82.2607Z" fill="#063643"/>
<path d="M104.818 211.35H99.6884L91.1084 198.36V211.35H85.9784V190.29H91.1084L99.6884 203.34V190.29H104.818V211.35Z" fill="#063643"/>
<path d="M116.427 190.29C118.647 190.29 120.587 190.73 122.247 191.61C123.907 192.49 125.187 193.73 126.087 195.33C127.007 196.91 127.467 198.74 127.467 200.82C127.467 202.88 127.007 204.71 126.087 206.31C125.187 207.91 123.897 209.15 122.217 210.03C120.557 210.91 118.627 211.35 116.427 211.35H108.537V190.29H116.427ZM116.097 206.91C118.037 206.91 119.547 206.38 120.627 205.32C121.707 204.26 122.247 202.76 122.247 200.82C122.247 198.88 121.707 197.37 120.627 196.29C119.547 195.21 118.037 194.67 116.097 194.67H113.667V206.91H116.097Z" fill="#063643"/>
<path d="M140.294 211.56C138.314 211.56 136.494 211.1 134.834 210.18C133.194 209.26 131.884 207.98 130.904 206.34C129.944 204.68 129.464 202.82 129.464 200.76C129.464 198.7 129.944 196.85 130.904 195.21C131.884 193.57 133.194 192.29 134.834 191.37C136.494 190.45 138.314 189.99 140.294 189.99C142.274 189.99 144.084 190.45 145.724 191.37C147.384 192.29 148.684 193.57 149.624 195.21C150.584 196.85 151.064 198.7 151.064 200.76C151.064 202.82 150.584 204.68 149.624 206.34C148.664 207.98 147.364 209.26 145.724 210.18C144.084 211.1 142.274 211.56 140.294 211.56ZM140.294 206.88C141.974 206.88 143.314 206.32 144.314 205.2C145.334 204.08 145.844 202.6 145.844 200.76C145.844 198.9 145.334 197.42 144.314 196.32C143.314 195.2 141.974 194.64 140.294 194.64C138.594 194.64 137.234 195.19 136.214 196.29C135.214 197.39 134.714 198.88 134.714 200.76C134.714 202.62 135.214 204.11 136.214 205.23C137.234 206.33 138.594 206.88 140.294 206.88Z" fill="#063643"/>
<path d="M164.658 211.35L160.278 203.4H159.048V211.35H153.918V190.29H162.528C164.188 190.29 165.598 190.58 166.758 191.16C167.938 191.74 168.818 192.54 169.398 193.56C169.978 194.56 170.268 195.68 170.268 196.92C170.268 198.32 169.868 199.57 169.068 200.67C168.288 201.77 167.128 202.55 165.588 203.01L170.448 211.35H164.658ZM159.048 199.77H162.228C163.168 199.77 163.868 199.54 164.328 199.08C164.808 198.62 165.048 197.97 165.048 197.13C165.048 196.33 164.808 195.7 164.328 195.24C163.868 194.78 163.168 194.55 162.228 194.55H159.048V199.77Z" fill="#063643"/>
<path d="M186.598 207.63H178.738L177.478 211.35H172.108L179.728 190.29H185.668L193.288 211.35H187.858L186.598 207.63ZM185.278 203.67L182.668 195.96L180.088 203.67H185.278Z" fill="#063643"/>
<path d="M219.457 190.29V211.35H214.327V198.72L209.617 211.35H205.477L200.737 198.69V211.35H195.607V190.29H201.667L207.577 204.87L213.427 190.29H219.457Z" fill="#063643"/>
<path d="M236.256 207.63H228.396L227.136 211.35H221.766L229.386 190.29H235.326L242.946 211.35H237.516L236.256 207.63ZM234.936 203.67L232.326 195.96L229.746 203.67H234.936Z" fill="#063643"/>
<path d="M132.36 230.07C132.36 231.29 132.08 232.41 131.52 233.43C130.96 234.43 130.1 235.24 128.94 235.86C127.78 236.48 126.34 236.79 124.62 236.79H121.44V244.35H116.31V223.29H124.62C126.3 223.29 127.72 223.58 128.88 224.16C130.04 224.74 130.91 225.54 131.49 226.56C132.07 227.58 132.36 228.75 132.36 230.07ZM124.23 232.71C125.21 232.71 125.94 232.48 126.42 232.02C126.9 231.56 127.14 230.91 127.14 230.07C127.14 229.23 126.9 228.58 126.42 228.12C125.94 227.66 125.21 227.43 124.23 227.43H121.44V232.71H124.23Z" fill="#063643"/>
<path d="M140.161 227.4V231.66H147.031V235.62H140.161V240.24H147.931V244.35H135.031V223.29H147.931V227.4H140.161Z" fill="#063643"/>
<path d="M166.411 223.29V227.4H160.831V244.35H155.701V227.4H150.121V223.29H166.411Z" fill="#063643"/>
<path d="M176.606 244.56C175.066 244.56 173.686 244.31 172.466 243.81C171.246 243.31 170.266 242.57 169.526 241.59C168.806 240.61 168.426 239.43 168.386 238.05H173.846C173.926 238.83 174.196 239.43 174.656 239.85C175.116 240.25 175.716 240.45 176.456 240.45C177.216 240.45 177.816 240.28 178.256 239.94C178.696 239.58 178.916 239.09 178.916 238.47C178.916 237.95 178.736 237.52 178.376 237.18C178.036 236.84 177.606 236.56 177.086 236.34C176.586 236.12 175.866 235.87 174.926 235.59C173.566 235.17 172.456 234.75 171.596 234.33C170.736 233.91 169.996 233.29 169.376 232.47C168.756 231.65 168.446 230.58 168.446 229.26C168.446 227.3 169.156 225.77 170.576 224.67C171.996 223.55 173.846 222.99 176.126 222.99C178.446 222.99 180.316 223.55 181.736 224.67C183.156 225.77 183.916 227.31 184.016 229.29H178.466C178.426 228.61 178.176 228.08 177.716 227.7C177.256 227.3 176.666 227.1 175.946 227.1C175.326 227.1 174.826 227.27 174.446 227.61C174.066 227.93 173.876 228.4 173.876 229.02C173.876 229.7 174.196 230.23 174.836 230.61C175.476 230.99 176.476 231.4 177.836 231.84C179.196 232.3 180.296 232.74 181.136 233.16C181.996 233.58 182.736 234.19 183.356 234.99C183.976 235.79 184.286 236.82 184.286 238.08C184.286 239.28 183.976 240.37 183.356 241.35C182.756 242.33 181.876 243.11 180.716 243.69C179.556 244.27 178.186 244.56 176.606 244.56Z" fill="#063643"/>
</svg>
